<svg id="visual" viewBox="0 0 900 600" width="900" height="600" xmlns="http://www.w3.org/2000/svg" xmlns:xlink="http://www.w3.org/1999/xlink" version="1.1"><rect x="0" y="0" width="900" height="600" fill="#18122B"></rect><path d="M0 439L18.8 434C37.7 429 75.3 419 112.8 404.8C150.3 390.7 187.7 372.3 225.2 369.5C262.7 366.7 300.3 379.3 337.8 385.8C375.3 392.3 412.7 392.7 450.2 392.3C487.7 392 525.3 391 562.8 395.7C600.3 400.3 637.7 410.7 675.2 410.5C712.7 410.3 750.3 399.7 787.8 391.7C825.3 383.7 862.7 378.3 881.3 375.7L900 373L900 601L881.3 601C862.7 601 825.3 601 787.8 601C750.3 601 712.7 601 675.2 601C637.7 601 600.3 601 562.8 601C525.3 601 487.7 601 450.2 601C412.7 601 375.3 601 337.8 601C300.3 601 262.7 601 225.2 601C187.7 601 150.3 601 112.8 601C75.3 601 37.7 601 18.8 601L0 601Z" fill="#393053"></path><path d="M0 394L18.8 398.8C37.7 403.7 75.3 413.3 112.8 422.2C150.3 431 187.7 439 225.2 433.3C262.7 427.7 300.3 408.3 337.8 410.7C375.3 413 412.7 437 450.2 437.3C487.7 437.7 525.3 414.3 562.8 411.3C600.3 408.3 637.7 425.7 675.2 428.3C712.7 431 750.3 419 787.8 416.7C825.3 414.3 862.7 421.7 881.3 425.3L900 429L900 601L881.3 601C862.7 601 825.3 601 787.8 601C750.3 601 712.7 601 675.2 601C637.7 601 600.3 601 562.8 601C525.3 601 487.7 601 450.2 601C412.7 601 375.3 601 337.8 601C300.3 601 262.7 601 225.2 601C187.7 601 150.3 601 112.8 601C75.3 601 37.7 601 18.8 601L0 601Z" fill="#332b4c"></path><path d="M0 433L18.8 440.2C37.7 447.3 75.3 461.7 112.8 458.8C150.3 456 187.7 436 225.2 433.2C262.7 430.3 300.3 444.7 337.8 456.3C375.3 468 412.7 477 450.2 478.5C487.7 480 525.3 474 562.8 462.5C600.3 451 637.7 434 675.2 436.7C712.7 439.3 750.3 461.7 787.8 468C825.3 474.3 862.7 464.7 881.3 459.8L900 455L900 601L881.3 601C862.7 601 825.3 601 787.8 601C750.3 601 712.7 601 675.2 601C637.7 601 600.3 601 562.8 601C525.3 601 487.7 601 450.2 601C412.7 601 375.3 601 337.8 601C300.3 601 262.7 601 225.2 601C187.7 601 150.3 601 112.8 601C75.3 601 37.7 601 18.8 601L0 601Z" fill="#2e2645"></path><path d="M0 447L18.8 452.8C37.7 458.7 75.3 470.3 112.8 479.3C150.3 488.3 187.7 494.7 225.2 492.8C262.7 491 300.3 481 337.8 476.2C375.3 471.3 412.7 471.7 450.2 467.3C487.7 463 525.3 454 562.8 457.5C600.3 461 637.7 477 675.2 479.5C712.7 482 750.3 471 787.8 471.7C825.3 472.3 862.7 484.7 881.3 490.8L900 497L900 601L881.3 601C862.7 601 825.3 601 787.8 601C750.3 601 712.7 601 675.2 601C637.7 601 600.3 601 562.8 601C525.3 601 487.7 601 450.2 601C412.7 601 375.3 601 337.8 601C300.3 601 262.7 601 225.2 601C187.7 601 150.3 601 112.8 601C75.3 601 37.7 601 18.8 601L0 601Z" fill="#28213e"></path><path d="M0 518L18.8 518C37.7 518 75.3 518 112.8 512.2C150.3 506.3 187.7 494.7 225.2 490.5C262.7 486.3 300.3 489.7 337.8 493.3C375.3 497 412.7 501 450.2 504.8C487.7 508.7 525.3 512.3 562.8 507.8C600.3 503.3 637.7 490.7 675.2 492.2C712.7 493.7 750.3 509.3 787.8 511.7C825.3 514 862.7 503 881.3 497.5L900 492L900 601L881.3 601C862.7 601 825.3 601 787.8 601C750.3 601 712.7 601 675.2 601C637.7 601 600.3 601 562.8 601C525.3 601 487.7 601 450.2 601C412.7 601 375.3 601 337.8 601C300.3 601 262.7 601 225.2 601C187.7 601 150.3 601 112.8 601C75.3 601 37.7 601 18.8 601L0 601Z" fill="#231c38"></path><path d="M0 537L18.8 539.8C37.7 542.7 75.3 548.3 112.8 550.2C150.3 552 187.7 550 225.2 545.5C262.7 541 300.3 534 337.8 535.2C375.3 536.3 412.7 545.7 450.2 547.3C487.7 549 525.3 543 562.8 539.2C600.3 535.3 637.7 533.7 675.2 535.3C712.7 537 750.3 542 787.8 542.8C825.3 543.7 862.7 540.3 881.3 538.7L900 537L900 601L881.3 601C862.7 601 825.3 601 787.8 601C750.3 601 712.7 601 675.2 601C637.7 601 600.3 601 562.8 601C525.3 601 487.7 601 450.2 601C412.7 601 375.3 601 337.8 601C300.3 601 262.7 601 225.2 601C187.7 601 150.3 601 112.8 601C75.3 601 37.7 601 18.8 601L0 601Z" fill="#1d1731"></path><path d="M0 558L18.8 561C37.7 564 75.3 570 112.8 572.5C150.3 575 187.7 574 225.2 570.5C262.7 567 300.3 561 337.8 556C375.3 551 412.7 547 450.2 547.3C487.7 547.7 525.3 552.3 562.8 554.8C600.3 557.3 637.7 557.7 675.2 556.7C712.7 555.7 750.3 553.3 787.8 553.3C825.3 553.3 862.7 555.7 881.3 556.8L900 558L900 601L881.3 601C862.7 601 825.3 601 787.8 601C750.3 601 712.7 601 675.2 601C637.7 601 600.3 601 562.8 601C525.3 601 487.7 601 450.2 601C412.7 601 375.3 601 337.8 601C300.3 601 262.7 601 225.2 601C187.7 601 150.3 601 112.8 601C75.3 601 37.7 601 18.8 601L0 601Z" fill="#18122b"></path></svg>